:SAMPLES-PER-SECOND 30
:FRAME-RANGE 1-663
:FULLY-SPECIFIED
:DEGREES
643
root  -51.7241 38.8109 -152.389 -177.721 -58.662 177.624
RightUpLeg  -13.1322 7.31288 -4.75519
RightLeg  34.0601 -8.70564 -6.51929
RightFoot  -17.1772 0.654399 15.0569
RightToes  -3.4386e-010 1.2921e-014 -6.02303e-014
Spine  -5.78193 -4.3524 -5.77118
Spine1  11.0398 -5.75899 2.93886
HEad  27.871 6.56211 -1.08386
LeftShoulder1  1.5467 -2.46744 -20.6261
LeftArm  0.126064 -9.33617 -53.2068
LeftForeArm  25.4984 -5.91567 -11.841
LeftHand  -0.130407 2.5963 4.97463
RightShoulder  0.756645 -0.894503 25.0956
RightArm  -27.4572 -7.31962 52.5954
RightForeArm  63.8377 -5.4893 3.23693
RightHand  0.406954 -8.27577 -17.0758
LeftUpLeg  -1.17324 -0.458875 -8.54568
LeftLeg  14.4197 -6.70281 -0.467769
LeftFoot  -13.1287 0.153058 4.74828
LeftToes  -7.12384e-010 -7.51861e-011 -8.34901e-011
644
root  -52.8111 39.0354 -152.881 179.698 -60.7669 -179.296
RightUpLeg  -11.6419 7.78683 -1.96382
RightLeg  26.6197 -13.8266 -7.63268
RightFoot  -17.7556 -0.185481 -1.1671
RightToes  -3.4386e-010 1.2921e-014 -6.02303e-014
Spine  -6.26289 -4.70393 -3.52652
Spine1  11.3867 -6.21593 4.08687
HEad  27.4992 6.01662 -1.77036
LeftShoulder1  1.68797 -2.96526 -20.7633
LeftArm  2.57347 -10.7218 -52.8188
LeftForeArm  22.8585 -8.23134 -11.4445
LeftHand  -0.119623 2.66156 4.61082
RightShoulder  0.705339 -1.07586 25.332
RightArm  -28.2771 -9.26446 51.4086
RightForeArm  64.8731 -5.39338 2.88702
RightHand  0.4472 -8.64323 -16.631
LeftUpLeg  2.51703 -0.293175 -6.83906
LeftLeg  10.849 -8.70444 -0.484275
LeftFoot  -12.1501 0.125373 7.38558
LeftToes  -7.12384e-010 -7.51861e-011 -8.34901e-011
645
root  -53.9214 39.0157 -153.456 178.01 -62.3189 -177.285
RightUpLeg  -10.1218 6.39971 -0.032001
RightLeg  19.5405 -18.1937 -7.3003
RightFoot  -21.136 -2.00196 -21.4268
RightToes  -3.4386e-010 1.2921e-014 -6.02303e-014
Spine  -6.99498 -4.95273 -2.47343
Spine1  11.9576 -6.64532 4.88903
HEad  26.4117 6.37222 -1.81989
LeftShoulder1  1.66863 -2.94926 -20.5059
LeftArm  3.77604 -11.7061 -53.17
LeftForeArm  21.8672 -9.80124 -10.927
LeftHand  -0.1314 2.4107 4.73244
RightShoulder  0.664126 -1.22241 25.5661
RightArm  -28.8253 -10.6773 50.137
RightForeArm  66.2028 -5.29507 2.59189
RightHand  0.489533 -8.9572 -16.5615
LeftUpLeg  4.99529 -0.554199 -5.91401
LeftLeg  9.87403 -9.7218 -0.240226
LeftFoot  -12.9004 0.18711 8.02726
LeftToes  -7.12384e-010 -7.51861e-011 -8.34901e-011
646
root  -55.0916 38.9124 -154.045 176.574 -63.673 -175.434
RightUpLeg  -10.3998 1.48354 1.44677
RightLeg  16.3451 -18.1171 -5.93608
RightFoot  -24.929 -4.18513 -32.7503
RightToes  -3.4386e-010 1.2921e-014 -6.02303e-014
Spine  -7.79201 -5.15716 -1.25192
Spine1  12.259 -6.95917 5.39576
HEad  25.5424 7.32423 -2.29982
LeftShoulder1  1.65638 -2.98481 -20.1359
LeftArm  4.6187 -12.3646 -53.4137
LeftForeArm  21.2855 -10.2288 -10.8231
LeftHand  -0.144207 2.25309 5.00342
RightShoulder  0.58855 -1.48259 25.9361
RightArm  -29.1302 -12.0749 48.6243
RightForeArm  67.3369 -5.21931 2.39299
RightHand  0.537623 -9.27554 -16.6456
LeftUpLeg  7.39501 -1.54069 -5.52189
LeftLeg  8.71994 -9.01885 0.468967
LeftFoot  -14.5082 0.273437 6.72523
LeftToes  -7.12384e-010 -7.51861e-011 -8.34901e-011
647
root  -56.2794 38.6645 -154.711 176.212 -64.6835 -174.819
RightUpLeg  -11.6919 2.07635 2.3778
RightLeg  18.0176 -22.3647 -8.19669
RightFoot  -29.821 -6.78421 -38.8595
RightToes  -3.4386e-010 1.2921e-014 -6.02303e-014
Spine  -8.35598 -5.24875 -1.12176
Spine1  12.3038 -7.12185 5.56909
HEad  25.32 5.83373 -1.10049
LeftShoulder1  1.62161 -2.87084 -20.0526
LeftArm  4.67527 -12.629 -53.498
LeftForeArm  21.8114 -10.2394 -10.8063
LeftHand  -0.12127 2.60648 4.59921
RightShoulder  0.51215 -1.74172 26.3528
RightArm  -29.7737 -13.1477 47.0837
RightForeArm  71.3271 -4.97932 1.88201
RightHand  -1.22847 1.4448 -20.8512
LeftUpLeg  8.99132 -2.08143 -5.27951
LeftLeg  9.86642 -8.79078 0.326571
LeftFoot  -15.8724 0.428867 8.40835
LeftToes  -7.12384e-010 -7.51861e-011 -8.34901e-011
648
root  -57.5386 38.3305 -155.347 176.894 -64.9868 -175.327
RightUpLeg  -11.2736 4.13595 2.6488
RightLeg  19.3945 -25.599 -10.1224
RightFoot  -33.2379 -8.92646 -42.8448
RightToes  -3.4386e-010 1.2921e-014 -6.02303e-014
Spine  -8.73203 -5.10575 -0.683659
Spine1  11.9499 -6.82008 4.74409
HEad  24.58 6.19399 -1.15719
LeftShoulder1  1.61814 -2.83424 -20.1598
LeftArm  3.53875 -12.2884 -53.4794
LeftForeArm  23.1349 -9.38082 -11.0325
LeftHand  -0.131135 2.54677 4.92622
RightShoulder  0.506393 -1.77059 26.5986
RightArm  -30.8178 -13.846 45.8633
RightForeArm  73.6899 -4.75884 1.13736
RightHand  -5.91658 14.6857 -33.5643
LeftUpLeg  9.81713 -4.12945 -6.27041
LeftLeg  12.7309 -6.73312 0.416963
LeftFoot  -17.684 0.525261 7.54732
LeftToes  -7.12384e-010 -7.51861e-011 -8.34901e-011
